<?xml version="1.0" encoding="UTF-8" standalone="no"?>
<!-- Created with Inkscape (http://www.inkscape.org/) -->

<svg
   xmlns:dc="http://purl.org/dc/elements/1.1/"
   xmlns:cc="http://creativecommons.org/ns#"
   xmlns:rdf="http://www.w3.org/1999/02/22-rdf-syntax-ns#"
   xmlns:svg="http://www.w3.org/2000/svg"
   xmlns="http://www.w3.org/2000/svg"
   xmlns:xlink="http://www.w3.org/1999/xlink"
   xmlns:sodipodi="http://sodipodi.sourceforge.net/DTD/sodipodi-0.dtd"
   xmlns:inkscape="http://www.inkscape.org/namespaces/inkscape"
   width="210mm"
   height="297mm"
   viewBox="0 0 210 297"
   version="1.1"
   id="svg8"
   inkscape:version="0.92.3 (2405546, 2018-03-11)"
   sodipodi:docname="sailboat_logo_v1.svg">
  <defs
     id="defs2">
    <linearGradient
       id="linearGradient946"
       inkscape:collect="always">
      <stop
         id="stop942"
         offset="0"
         style="stop-color:#00ff00;stop-opacity:0.19607843" />
      <stop
         id="stop944"
         offset="1"
         style="stop-color:#00ff00;stop-opacity:0;" />
    </linearGradient>
    <inkscape:path-effect
       effect="skeletal"
       id="path-effect877"
       is_visible="true"
       pattern="m -23.990791,10.377246 c 0,-2.7599998 2.24,-4.9999998 5,-4.9999998 2.76,0 5,2.24 5,4.9999998 0,2.76 -2.24,5 -5,5 -2.76,0 -5,-2.24 -5,-5 z"
       copytype="single_stretched"
       prop_scale="0.33469214"
       scale_y_rel="false"
       spacing="0"
       normal_offset="0"
       tang_offset="0"
       prop_units="false"
       vertical_pattern="false"
       fuse_tolerance="0" />
    <linearGradient
       inkscape:collect="always"
       id="linearGradient4601-9-3">
      <stop
         style="stop-color:#00c3ff;stop-opacity:0.36683416"
         offset="0"
         id="stop4597" />
      <stop
         style="stop-color:#000000;stop-opacity:0;"
         offset="1"
         id="stop4599" />
    </linearGradient>
    <inkscape:path-effect
       effect="skeletal"
       id="path-effect4567"
       is_visible="true"
       pattern="m -18.110861,6.3682033 c 0,-2.76 2.24,-5 5,-5 2.76,0 5.0000004,2.24 5.0000004,5 0,2.76 -2.2400004,4.9999997 -5.0000004,4.9999997 -2.76,0 -5,-2.2399997 -5,-4.9999997 z"
       copytype="single_stretched"
       prop_scale="0.29111798"
       scale_y_rel="false"
       spacing="0"
       normal_offset="0"
       tang_offset="0"
       prop_units="false"
       vertical_pattern="false"
       fuse_tolerance="0" />
    <inkscape:path-effect
       effect="skeletal"
       id="path-effect4559"
       is_visible="true"
       pattern="m -23.990791,10.377246 c 0,-2.7599998 2.24,-4.9999998 5,-4.9999998 2.76,0 5,2.24 5,4.9999998 0,2.76 -2.24,5 -5,5 -2.76,0 -5,-2.24 -5,-5 z"
       copytype="single_stretched"
       prop_scale="0.33469214"
       scale_y_rel="false"
       spacing="0"
       normal_offset="0"
       tang_offset="0"
       prop_units="false"
       vertical_pattern="false"
       fuse_tolerance="0" />
    <inkscape:path-effect
       effect="skeletal"
       id="path-effect4555"
       is_visible="true"
       pattern="m -23.990791,10.377246 c 0,-2.7599998 2.24,-4.9999998 5,-4.9999998 2.76,0 5,2.24 5,4.9999998 0,2.76 -2.24,5 -5,5 -2.76,0 -5,-2.24 -5,-5 z"
       copytype="single_stretched"
       prop_scale="0.33469214"
       scale_y_rel="false"
       spacing="0"
       normal_offset="0"
       tang_offset="0"
       prop_units="false"
       vertical_pattern="false"
       fuse_tolerance="0" />
    <inkscape:path-effect
       effect="skeletal"
       id="path-effect4551"
       is_visible="true"
       pattern="m -23.990791,10.377246 c 0,-2.7599998 2.24,-4.9999998 5,-4.9999998 2.76,0 5,2.24 5,4.9999998 0,2.76 -2.24,5 -5,5 -2.76,0 -5,-2.24 -5,-5 z"
       copytype="single_stretched"
       prop_scale="0.33469214"
       scale_y_rel="false"
       spacing="0"
       normal_offset="0"
       tang_offset="0"
       prop_units="false"
       vertical_pattern="false"
       fuse_tolerance="0" />
    <inkscape:path-effect
       effect="skeletal"
       id="path-effect4547"
       is_visible="true"
       pattern="m -23.990791,10.377246 c 0,-2.7599998 2.24,-4.9999998 5,-4.9999998 2.76,0 5,2.24 5,4.9999998 0,2.76 -2.24,5 -5,5 -2.76,0 -5,-2.24 -5,-5 z"
       copytype="single_stretched"
       prop_scale="0.33469214"
       scale_y_rel="false"
       spacing="0"
       normal_offset="0"
       tang_offset="0"
       prop_units="false"
       vertical_pattern="false"
       fuse_tolerance="0" />
    <inkscape:path-effect
       effect="skeletal"
       id="path-effect4543"
       is_visible="true"
       pattern="m -23.990791,10.377246 c 0,-2.7599998 2.24,-4.9999998 5,-4.9999998 2.76,0 5,2.24 5,4.9999998 0,2.76 -2.24,5 -5,5 -2.76,0 -5,-2.24 -5,-5 z"
       copytype="single_stretched"
       prop_scale="0.33469214"
       scale_y_rel="false"
       spacing="0"
       normal_offset="0"
       tang_offset="0"
       prop_units="false"
       vertical_pattern="false"
       fuse_tolerance="0" />
    <linearGradient
       inkscape:collect="always"
       xlink:href="#linearGradient4601-9-3"
       id="linearGradient4603"
       x1="104.50239"
       y1="139.57823"
       x2="68.153732"
       y2="147.06178"
       gradientUnits="userSpaceOnUse"
       gradientTransform="matrix(1.2649781,0,0,1.2649781,-39.139938,-62.027622)" />
    <linearGradient
       inkscape:collect="always"
       xlink:href="#linearGradient4601-9-3"
       id="linearGradient873"
       x1="120.09364"
       y1="203.19141"
       x2="145.37361"
       y2="196.61053"
       gradientUnits="userSpaceOnUse"
       gradientTransform="matrix(1.2649782,0,0,1.2649782,-39.139938,-62.027622)" />
    <linearGradient
       inkscape:collect="always"
       xlink:href="#linearGradient946"
       id="linearGradient906"
       x1="300.17831"
       y1="742.44586"
       x2="221.4422"
       y2="761.20587"
       gradientUnits="userSpaceOnUse" />
    <linearGradient
       inkscape:collect="always"
       xlink:href="#linearGradient946"
       id="linearGradient940"
       x1="367.01291"
       y1="723.62091"
       x2="290.48495"
       y2="741.59937"
       gradientUnits="userSpaceOnUse" />
  </defs>
  <sodipodi:namedview
     id="base"
     pagecolor="#ffffff"
     bordercolor="#666666"
     borderopacity="1.0"
     inkscape:pageopacity="0.0"
     inkscape:pageshadow="2"
     inkscape:zoom="0.45230451"
     inkscape:cx="876.8341"
     inkscape:cy="329.88798"
     inkscape:document-units="mm"
     inkscape:current-layer="layer1"
     showgrid="false"
     inkscape:window-width="1920"
     inkscape:window-height="1017"
     inkscape:window-x="1912"
     inkscape:window-y="-8"
     inkscape:window-maximized="1"
     inkscape:snap-nodes="true"
     inkscape:snap-global="false" />
  <metadata
     id="metadata5">
    <rdf:RDF>
      <cc:Work
         rdf:about="">
        <dc:format>image/svg+xml</dc:format>
        <dc:type
           rdf:resource="http://purl.org/dc/dcmitype/StillImage" />
        <dc:title />
      </cc:Work>
    </rdf:RDF>
  </metadata>
  <g
     inkscape:label="Layer 1"
     inkscape:groupmode="layer"
     id="layer1">
    <path
       style="fill:#000000;stroke:none;stroke-width:0.33469212px;stroke-linecap:butt;stroke-linejoin:miter;stroke-opacity:1"
       d="m 55.525292,237.9387 c -0.132451,-0.65767 28.315838,-7.90976 64.122318,-13.33127 3.92372,-0.59409 7.75604,-1.13679 11.50034,-1.62994 11.68516,-1.53935 21.4762,-2.4445 30.37835,-2.81927 14.43579,-0.61147 23.54213,0.57818 23.48751,1.21407 -0.0441,0.51306 -9.10595,0.1411 -23.32502,1.3465 -8.99441,0.76512 -18.28671,1.85852 -30.09583,3.52298 -3.72798,0.52556 -7.53132,1.08205 -11.44437,1.67449 -35.633906,5.39503 -64.44092,10.92801 -64.623298,10.02244 z"
       id="path4541"
       inkscape:connector-curvature="0"
       inkscape:path-effect="#path-effect4543"
       inkscape:original-d="M 55.525292,237.9387 C 111.21313,226.72338 158.92839,219.13197 185.01381,221.37229"
       sodipodi:nodetypes="cc" />
    <path
       style="fill:#000000;stroke:none;stroke-width:0.33469212px;stroke-linecap:butt;stroke-linejoin:miter;stroke-opacity:1"
       d="m 185.35189,223.73892 c -7.9e-4,7.7e-4 0.23321,-0.0514 0.44329,0.2713 0.0647,0.16183 0.0567,0.35508 -0.0316,0.48909 -0.20842,0.45205 -0.6523,1.03933 -1.06701,1.76254 -2.50595,4.25582 -3.58367,6.78318 -7.22038,16.14135 -14.98667,2.054 -36.49446,4.93843 -61.18477,8.6081 -4.25964,0.6331 -8.41838,1.26041 -12.49972,1.88452 -23.696616,3.28795 -34.456941,4.95367 -50.302433,6.8604 -2.149916,-2.68331 -3.623326,-5.206 -4.471079,-7.71861 -2.048466,-7.03634 0.400095,-10.67405 0.08341,-10.71801 0.296672,0.0412 -0.789662,4.19566 1.480689,10.19867 0.703055,2.15833 1.879253,4.22104 3.598167,6.52609 12.287564,-2.07595 29.509481,-5.23435 49.119263,-8.41945 4.00748,-0.59253 8.10171,-1.17495 12.28689,-1.74765 23.66945,-3.23898 46.14258,-5.59066 60.73654,-6.96507 3.10632,-8.06389 5.0591,-11.89905 7.6539,-15.14596 0.59543,-0.74326 1.09688,-1.17231 1.40122,-1.5154 0.045,-0.0725 0.10019,-0.0968 0.0936,-0.10535 0.001,-0.19114 -0.16226,-0.36517 -0.11996,-0.40656 z"
       id="path4545"
       inkscape:connector-curvature="0"
       inkscape:path-effect="#path-effect4547"
       inkscape:original-d="m 185.35189,223.73892 c 1.19305,1.21935 -1.08257,-1.12529 -8.45224,17.91878 -66.69184,7.70122 -87.897121,12.15836 -123.064808,17.24259 -3.249125,-4.18886 -5.932115,-8.94385 -4.733262,-17.58068"
       sodipodi:nodetypes="cccc" />
    <path
       style="fill:#000000;stroke:none;stroke-width:0.33469212px;stroke-linecap:butt;stroke-linejoin:miter;stroke-opacity:1"
       d="m 179.26627,218.32948 c -0.0803,0.45095 -3.54901,-0.0181 -9.36534,-1.20943 -2.7413,-0.55954 -6.28597,-1.20645 -10.07026,-1.52737 0,0 -1e-5,0 -1e-5,0 -9.62405,-1.08325 -19.35105,-1.06723 -32.49598,-0.21751 -3.80087,0.24569 -7.73527,0.54716 -11.30881,0.81574 0.65723,-0.002 1.29872,0.12829 1.83823,0.41074 0.30546,0.58562 0.46951,1.29673 0.43218,2.08255 -0.0744,0.75629 -0.33042,1.41042 -0.70107,1.92872 -0.4316,0.60709 -0.92337,1.06906 -1.40662,1.41669 -1.3369,0.97675 -2.76948,1.58215 -4.0688,2.04343 -1.85261,0.67637 -3.71288,1.17747 -5.4452,1.59717 -4.63893,1.12649 -9.755958,1.98807 -13.15691,2.57044 -10e-7,0 -2e-6,0 -3e-6,0 -7.812846,1.34239 -12.552054,2.19199 -12.635634,1.92198 -0.160434,-0.51829 4.420464,-2.12885 12.188732,-4.0547 10e-7,0 2e-6,0 3e-6,0 3.005899,-0.74634 8.764992,-2.06495 12.870912,-3.22794 1.66968,-0.47384 3.41917,-1.00404 5.08658,-1.66973 1.19626,-0.49022 2.36511,-0.99211 3.24374,-1.70041 0.29958,-0.2478 0.54884,-0.47015 0.67576,-0.68839 0.0875,-0.1588 0.15351,-0.29291 0.13648,-0.36079 0.0223,-0.0706 -0.0403,-0.22232 -0.12176,-0.41311 0.0297,-0.74163 -0.0829,-1.50063 -0.25388,-2.31279 3.63245,-0.50808 7.64543,-1.07758 11.56883,-1.5743 13.43666,-1.70116 23.96057,-2.24881 33.84193,-1.15705 0,0 1e-5,0 1e-5,0 3.95004,0.54206 7.49814,1.4439 10.24751,2.27309 5.6487,1.7029 8.9422,2.81243 8.89938,3.05297 z"
       id="path4549"
       inkscape:connector-curvature="0"
       inkscape:path-effect="#path-effect4551"
       inkscape:original-d="m 179.26627,218.32948 c -13.84883,-2.46532 -16.29483,-7.49628 -63.89903,-2.36664 7.76022,7.5859 -20.422761,9.84687 -34.485191,14.19979"
       sodipodi:nodetypes="ccc" />
    <path
       style="fill:#000000;stroke:none;stroke-width:0.33469212px;stroke-linecap:butt;stroke-linejoin:miter;stroke-opacity:1"
       d="m 177.91391,211.56768 c -0.15832,0.19194 -6.84095,-4.57428 -17.25398,-14.21837 -11.0765,-10.25855 -23.75793,-23.60136 -39.50548,-42.88435 -13.77137,-17.48647 -24.843824,-33.24331 -40.33716,-54.512567 -2.785918,-3.82451 -5.53453,-7.572821 -8.285554,-11.279161 1e-6,3e-6 3e-6,7e-6 5e-6,1.1e-5 31.486079,68.296337 55.765249,122.066957 54.668659,122.556347 -1.09571,0.489 -24.93631,-53.55957 -54.872533,-122.897075 -10e-7,-3e-6 -3e-6,-7e-6 -5e-6,-1.1e-5 2.917858,3.618378 5.836658,7.278375 8.791318,11.008863 17.049495,21.526313 27.51159,35.318903 42.35116,53.253993 15.59516,19.54339 27.62386,32.73819 38.41143,43.48164 9.9939,9.95302 16.23826,15.24079 16.03214,15.49068 z"
       id="path4553"
       inkscape:connector-curvature="0"
       inkscape:path-effect="#path-effect4555"
       inkscape:original-d="M 177.91391,211.56768 C 136.88124,177.7221 105.83725,131.66815 72.429799,88.502868 L 127.2004,211.22959"
       sodipodi:nodetypes="ccc" />
    <path
       style="fill:#000000;stroke:none;stroke-width:0.33469212px;stroke-linecap:butt;stroke-linejoin:miter;stroke-opacity:1"
       d="m 119.76242,209.20104 c 0.16231,0.7338 -29.790507,7.67335 -73.941558,17.10691 -3.562574,-17.31934 -7.157697,-37.27614 -9.585476,-58.24559 -1.911257,-16.50809 -2.912765,-32.00878 -3.054673,-46.74321 -0.02744,-26.461925 2.766498,-46.727391 6.565502,-62.575188 3.618288,-15.093927 7.452937,-23.39684 7.664915,-23.321238 0.338846,0.120848 -2.735328,8.692749 -5.782046,23.737586 -3.227782,15.938941 -5.560692,35.783684 -5.308963,62.14227 0.01208,14.45062 0.768347,29.62078 2.356526,45.82272 2.019232,20.59938 5.1271,40.20715 8.296209,57.42549 42.702771,-9.77702 72.626974,-16.08481 72.789564,-15.34975 z"
       id="path4557"
       inkscape:connector-curvature="0"
       inkscape:path-effect="#path-effect4559"
       inkscape:original-d="M 119.76242,209.20104 46.396859,225.42937 C 31.880102,150.95269 29.518348,85.592255 47.41113,35.422725"
       sodipodi:nodetypes="ccc" />
    <path
       style="fill:#000000;stroke:none;stroke-width:0.28173199px;stroke-linecap:butt;stroke-linejoin:miter;stroke-opacity:1"
       d="m 45.371821,30.703647 c 0.727311,-0.341479 7.608189,12.779618 15.359102,29.288164 7.750913,16.508546 13.45123,30.18393 12.723919,30.525409 C 72.727531,90.8587 65.846652,77.7376 58.095739,61.229054 50.344825,44.720509 44.64451,31.045126 45.371821,30.703647 Z"
       id="path4565"
       inkscape:connector-curvature="0"
       inkscape:path-effect="#path-effect4567"
       inkscape:original-d="m 45.371821,30.703647 28.08302,59.813572" />
    <path
       style="fill:url(#linearGradient4603);fill-opacity:1;stroke:#000000;stroke-width:1.6734606;stroke-linecap:butt;stroke-linejoin:round;stroke-miterlimit:4;stroke-dasharray:none;stroke-opacity:1;paint-order:stroke markers fill"
       d="m 49.777694,62.470006 c -3.484064,20.223852 -7.124507,40.430264 -2.704339,61.532374 5.395776,-3.30301 12.035586,-9.59314 13.185043,-2.705 -3.186932,12.15524 -8.087889,9.9121 -7.099791,57.13757 9.453851,-5.22141 19.063592,-22.14517 24.122672,-5.19884 l 15.0958,-3.25344 z"
       id="path4569"
       inkscape:connector-curvature="0" />
    <text
       xml:space="preserve"
       style="font-style:normal;font-variant:normal;font-weight:normal;font-stretch:normal;font-size:31.01175117px;line-height:1.25;font-family:'Zilap Marine';-inkscape-font-specification:'Zilap Marine';letter-spacing:0px;word-spacing:0px;fill:#000000;fill-opacity:1;stroke:none;stroke-width:0.77529377;"
       x="18.70187"
       y="216.13541"
       id="text861"
       transform="rotate(-11.45846)"><tspan
         sodipodi:role="line"
         id="tspan859"
         x="18.70187"
         y="216.13541"
         style="stroke-width:0.77529377;-inkscape-font-specification:WishfulWaves;font-family:WishfulWaves;font-weight:normal;font-style:normal;font-stretch:normal;font-variant:normal;fill:#000000;fill-opacity:1;">DS</tspan></text>
    <path
       style="opacity:1;fill:url(#linearGradient873);fill-opacity:1;stroke:#000000;stroke-width:1.6734606;stroke-linecap:butt;stroke-linejoin:round;stroke-miterlimit:4;stroke-dasharray:none;stroke-opacity:1;paint-order:markers fill stroke"
       d="m 113.10906,159.75695 23.49406,44.76825 c 3.20519,-4.19497 11.63651,-1.42176 19.05426,0 -5.03249,-6.98656 -14.81636,-15.26316 -24.46085,-24.37479 -6.31939,-5.97025 -12.73777,-14.36007 -18.08747,-20.39346 z"
       id="path865"
       inkscape:connector-curvature="0"
       sodipodi:nodetypes="cccsc" />
    <path
       style="fill:#ff0000;fill-opacity:0.42211058;stroke:none;stroke-width:0.33469212px;stroke-linecap:butt;stroke-linejoin:miter;stroke-opacity:1"
       d="m 55.566208,256.37629 c -0.08874,-0.43889 6.423389,-2.22276 17.073141,-4.59643 10.493286,-2.33879 25.597252,-5.37191 41.906191,-7.81399 16.89947,-2.53051 31.04457,-3.82408 42.38221,-4.33148 10.90462,-0.48802 17.66171,-0.17479 17.67519,0.25988 0.0152,0.48865 -6.70811,1.01122 -17.50411,2.09768 -11.73438,1.18089 -24.74122,2.68872 -42.05732,5.28439 -15.613586,2.34046 -31.971541,5.18111 -41.951416,6.8287 -10.750652,1.77485 -17.429659,2.7373 -17.523886,2.27125 z"
       id="path875"
       inkscape:connector-curvature="0"
       inkscape:path-effect="#path-effect877"
       inkscape:original-d="M 55.566208,256.37629 C 95.396369,248.32332 135.45665,241.10853 174.60294,239.89427"
       sodipodi:nodetypes="cc" />
    <path
       style="opacity:1;fill:url(#linearGradient906);fill-opacity:1;stroke:#000000;stroke-width:0.69090623;stroke-linecap:butt;stroke-linejoin:round;stroke-miterlimit:4;stroke-dasharray:none;stroke-opacity:1;paint-order:markers fill stroke"
       d="m 248.83571,792.83551 c 0.002,-5.96186 -0.48963,-9.80813 -1.9372,-15.16031 -1.75597,-6.49249 -4.16631,-11.31778 -10.62978,-21.27991 -4.82443,-7.43589 -7.88759,-12.86686 -9.5294,-16.89559 -3.17473,-7.79027 -4.77353,-16.17774 -4.77353,-25.04242 0,-4.39751 0.32265,-7.90774 1.12499,-12.23915 l 0.29623,-1.59921 2.43301,-0.5106 c 4.68152,-0.98247 8.9799,-1.69468 14.38569,-2.3836 2.11244,-0.26921 3.58813,-0.37002 5.80362,-0.39648 3.27684,-0.0391 3.93563,-0.12663 8.29087,-1.10128 2.69925,-0.60405 3.03999,-0.61839 3.03999,-0.1279 0,0.26491 0.41875,0.40689 1.79635,0.60907 1.71844,0.2522 3.51898,0.76443 4.69817,1.33658 1.90789,0.92572 4.16818,3.53427 5.60058,6.46352 0.81861,1.67407 3.81875,10.13405 4.50663,12.7081 1.00484,3.76011 2.61518,7.29625 4.86302,10.67865 1.08157,1.62748 5.99336,7.90861 10.18728,13.02737 1.0723,1.30875 2.21245,2.89813 2.92419,4.07634 0.64163,1.06215 1.30695,2.14882 1.4785,2.41482 0.17154,0.266 0.71774,1.22498 1.21377,2.13108 0.49603,0.90609 1.16576,2.05914 1.4883,2.56233 0.47344,0.73861 0.645,1.19329 0.89043,2.35981 0.1672,0.79471 0.63801,2.75074 1.04625,4.34673 1.13536,4.43872 1.24369,5.29118 1.2291,9.67269 -0.007,2.05199 -0.0807,4.22835 -0.16412,4.83634 -0.30831,2.24665 -0.39951,2.48778 -1.48694,3.93135 -3.01913,4.00792 -6.52727,7.08306 -9.9369,8.71041 -0.6381,0.30455 -4.01755,1.51683 -7.5099,2.69396 -6.40398,2.15852 -9.27231,3.2345 -11.11251,4.16858 -0.96176,0.48818 -1.13715,0.52515 -4.25041,0.89588 -3.70634,0.44136 -4.93974,0.66797 -6.69849,1.23067 -0.68581,0.21942 -2.92584,0.74278 -4.97783,1.16301 -2.05199,0.42024 -3.85697,0.79332 -4.01107,0.82907 -0.27672,0.0642 -0.28016,0.0135 -0.27889,-4.10991 z m 23.05159,-10.9089 c 1.91577,-0.90979 5.84326,-3.76796 7.26261,-5.28525 1.56743,-1.67559 2.37231,-3.68866 2.37171,-5.93187 -5.6e-4,-2.10419 -1.09651,-7.50126 -2.28939,-11.27421 -0.83331,-2.63565 -2.08142,-5.66638 -3.51699,-8.54014 -2.53291,-5.07043 -4.74157,-8.4149 -7.5969,-11.50369 -1.76019,-1.90409 -2.10437,-2.35699 -2.83272,-3.72744 -0.456,-0.85801 -1.28673,-2.18745 -1.84608,-2.95431 -2.42688,-3.32726 -4.32744,-6.47506 -6.09795,-10.09972 -0.96189,-1.96921 -1.08928,-2.32269 -1.16538,-3.2335 -0.047,-0.56244 -0.32869,-1.86825 -0.62601,-2.90181 -0.29731,-1.03356 -0.62961,-2.35622 -0.73845,-2.93925 -0.36838,-1.97348 -1.63331,-3.83615 -4.54194,-6.68823 -2.63083,-2.57967 -3.65464,-3.00798 -6.50189,-2.72001 -1.73887,0.17587 -2.83749,0.66224 -3.82281,1.69241 -0.98019,1.0248 -1.10202,1.52856 -1.20651,4.98879 -0.21484,7.11497 0.6979,14.1139 2.6383,20.23065 l 0.61368,1.93454 3.96355,5.52725 c 2.17995,3.03999 5.55181,7.70361 7.49303,10.36359 5.19413,7.11735 5.60004,7.69478 6.89673,9.81087 3.89324,6.3535 6.16864,12.33795 7.09386,18.65733 0.19513,1.33278 0.22819,1.92732 0.1268,2.28081 -0.20158,0.70287 -0.16718,1.61008 0.0791,2.08633 0.31882,0.61653 0.90577,0.82672 2.14941,0.76969 0.86013,-0.0394 1.24354,-0.13883 2.09425,-0.54283 z"
       id="path896"
       inkscape:connector-curvature="0"
       transform="scale(0.26458333)" />
    <path
       style="opacity:1;fill:url(#linearGradient940);fill-opacity:1.0;stroke:#000000;stroke-width:0.69090623;stroke-linecap:butt;stroke-linejoin:round;stroke-miterlimit:4;stroke-dasharray:none;stroke-opacity:1;paint-order:markers fill stroke"
       d="m 333.62946,778.6504 c -2.20232,-0.34878 -2.8101,-0.56523 -4.17317,-1.48613 -2.69642,-1.82173 -7.51456,-6.03613 -9.7114,-8.4945 -0.87303,-0.97697 -0.96822,-1.15531 -1.94584,-3.64541 -1.82789,-4.65587 -1.91905,-4.91497 -2.20348,-6.26311 -0.15429,-0.73128 -0.42972,-1.64651 -0.61207,-2.03384 -0.18235,-0.38733 -0.33303,-0.91587 -0.33484,-1.17454 -0.003,-0.44068 -0.22369,-1.49383 -0.74495,-3.5563 -0.24091,-0.95318 -0.20785,-1.12853 0.21275,-1.12853 0.15251,0 0.3946,-0.0628 0.53796,-0.1395 0.14337,-0.0767 2.36227,-0.35795 4.9309,-0.62494 2.56862,-0.26699 5.69386,-0.60558 6.94497,-0.75241 1.25111,-0.14683 2.28959,-0.25212 2.30774,-0.23397 0.0742,0.0742 2.26716,6.09773 2.85095,7.8308 0.34561,1.02599 0.79427,2.60685 0.99703,3.51301 0.638,2.85134 1.80051,5.48934 3.27199,7.42489 l 0.70688,0.92982 0.49712,-0.249 c 0.58865,-0.29484 1.25181,-0.41086 3.14572,-0.55035 1.2798,-0.0942 1.51985,-0.15928 2.69454,-0.73 3.33317,-1.6194 5.22786,-4.0522 5.76486,-7.40214 0.12509,-0.78032 0.10706,-0.93477 -0.1866,-1.59878 -0.69838,-1.57915 -0.92239,-2.76477 -1.17198,-6.20285 -0.13531,-1.86392 -0.14791,-1.91518 -0.78117,-3.17606 -1.28296,-2.55453 -2.95423,-4.68037 -4.73377,-6.02129 -1.95408,-1.47245 -7.65573,-4.37545 -11.14354,-5.67376 -0.83599,-0.31119 -3.63416,-1.22493 -6.21815,-2.03053 -9.41622,-2.93565 -17.12486,-5.45006 -20.71646,-6.7573 -2.01527,-0.7335 -4.88981,-2.65339 -6.72195,-4.48956 -1.43288,-1.43603 -3.33369,-4.92949 -5.00602,-9.20047 -0.67019,-1.71159 -0.79345,-2.18934 -1.06958,-4.14544 -0.28682,-2.03183 -0.30457,-2.51307 -0.21918,-5.94179 0.0873,-3.50462 0.25593,-6.41629 0.43662,-7.53818 0.11672,-0.72474 5.02289,-7.3165 6.43969,-8.65216 0.85632,-0.80727 4.87183,-2.54803 11.10718,-4.81504 3.25934,-1.18502 4.51766,-1.58048 5.25088,-1.65025 0.53037,-0.0505 1.18195,-0.17844 1.44795,-0.28439 0.266,-0.10594 0.97349,-0.32532 1.5722,-0.48752 0.59871,-0.16219 1.63996,-0.50785 2.3139,-0.76812 2.38755,-0.92208 4.90084,-1.22365 6.89555,-0.8274 2.16841,0.43075 4.33734,1.74791 5.61842,3.412 0.94258,1.22439 4.66185,8.99899 4.83717,10.11142 0.0745,0.47256 1.09112,3.03676 1.63012,4.11151 0.60472,1.2058 1.7357,3.03542 1.87635,3.03542 0.0709,0 0.12891,0.0511 0.12891,0.11364 0,0.0625 -1.63226,0.24715 -3.62726,0.41033 l -3.62725,0.29669 -2.27999,0.76814 c -1.254,0.42248 -2.65308,0.85018 -3.10908,0.95045 -0.74031,0.16279 -1.86613,0.46751 -3.62261,0.98053 l -0.58262,0.17016 -0.7867,-2.36315 c -1.52689,-4.58661 -2.89503,-6.58269 -5.30258,-7.73637 -0.85504,-0.40973 -0.9778,-0.43007 -2.55635,-0.42354 -1.38471,0.006 -1.78811,0.0582 -2.44603,0.31833 -1.50365,0.59448 -2.64534,1.92096 -3.71028,4.3108 -1.1272,2.52957 -1.28109,3.09139 -1.285,4.69125 -0.003,1.23213 0.0711,1.73217 0.49128,3.31635 1.0132,3.81975 2.56028,6.45027 5.07367,8.62688 0.74438,0.64463 1.08233,0.82165 2.40751,1.26103 0.84786,0.28113 2.44813,0.90029 3.55614,1.3759 2.16321,0.92857 5.97069,2.36805 9.31629,3.5222 2.42872,0.83784 4.63405,1.72419 5.99404,2.40907 0.53373,0.26878 1.05505,0.45622 1.15848,0.41653 0.19054,-0.0731 5.01792,1.54821 7.4256,2.49396 3.24083,1.27301 6.44278,3.04334 8.39438,4.64117 0.94761,0.77583 1.03165,0.81531 1.55687,0.73132 0.52862,-0.0845 0.61957,-0.0402 1.90013,0.92654 1.92797,1.45545 5.1154,4.69337 6.67284,6.77854 1.19031,1.59363 3.03206,4.46051 3.03206,4.71972 0,0.0587 -0.12437,0.0402 -0.27636,-0.0412 -0.3679,-0.19689 -0.35026,-0.063 0.13179,1.00013 1.12593,2.48317 1.71589,5.57259 1.70891,8.94892 -0.009,4.25936 -0.9201,8.07449 -2.97058,12.43631 -0.66932,1.4238 -0.70063,1.46325 -1.67608,2.11199 -2.17358,1.44556 -5.47963,3.88746 -6.61722,4.88758 -1.44899,1.27389 -2.84766,2.241 -4.28945,2.96592 -0.92699,0.46607 -1.34143,0.57819 -3.04206,0.82298 -1.08288,0.15586 -2.77723,0.47156 -3.76523,0.70155 -0.988,0.22999 -2.29381,0.51176 -2.90181,0.62615 -1.2624,0.23751 -5.97048,0.36397 -7.06965,0.18989 z"
       id="path898"
       inkscape:connector-curvature="0"
       transform="scale(0.26458333)" />
  </g>
</svg>
